<mxfile host="app.diagrams.net" modified="2020-08-12T02:55:58.447Z" agent="5.0 (Windows)" etag="YhQbp40KhSWHI9NYZSN_" version="13.6.2" type="github">
  <diagram id="mWcdnm1O7wJLM2R8wqJ9" name="Page-1">
    <mxGraphModel dx="868" dy="479" grid="1" gridSize="10" guides="1" tooltips="1" connect="1" arrows="1" fold="1" page="1" pageScale="1" pageWidth="827" pageHeight="1169" math="0" shadow="0">
      <root>
        <mxCell id="0" />
        <mxCell id="1" parent="0" />
        <mxCell id="8d-aJYdHGcwId2bcx3M5-3" value="" style="edgeStyle=orthogonalEdgeStyle;rounded=0;orthogonalLoop=1;jettySize=auto;html=1;" parent="1" source="8d-aJYdHGcwId2bcx3M5-1" target="8d-aJYdHGcwId2bcx3M5-2" edge="1">
          <mxGeometry relative="1" as="geometry" />
        </mxCell>
        <mxCell id="8d-aJYdHGcwId2bcx3M5-1" value="CustoDaMaça" style="rounded=1;whiteSpace=wrap;html=1;" parent="1" vertex="1">
          <mxGeometry x="270" y="10" width="120" height="60" as="geometry" />
        </mxCell>
        <mxCell id="8d-aJYdHGcwId2bcx3M5-5" value="" style="edgeStyle=orthogonalEdgeStyle;rounded=0;orthogonalLoop=1;jettySize=auto;html=1;" parent="1" source="8d-aJYdHGcwId2bcx3M5-2" edge="1">
          <mxGeometry relative="1" as="geometry">
            <mxPoint x="330" y="280" as="targetPoint" />
          </mxGeometry>
        </mxCell>
        <mxCell id="8d-aJYdHGcwId2bcx3M5-2" value="Inicio" style="ellipse;whiteSpace=wrap;html=1;rounded=1;" parent="1" vertex="1">
          <mxGeometry x="270" y="140" width="120" height="80" as="geometry" />
        </mxCell>
        <mxCell id="8d-aJYdHGcwId2bcx3M5-7" value="" style="edgeStyle=orthogonalEdgeStyle;rounded=0;orthogonalLoop=1;jettySize=auto;html=1;" parent="1" target="8d-aJYdHGcwId2bcx3M5-6" edge="1">
          <mxGeometry relative="1" as="geometry">
            <mxPoint x="330" y="340" as="sourcePoint" />
          </mxGeometry>
        </mxCell>
        <mxCell id="8d-aJYdHGcwId2bcx3M5-9" value="" style="edgeStyle=orthogonalEdgeStyle;rounded=0;orthogonalLoop=1;jettySize=auto;html=1;" parent="1" source="8d-aJYdHGcwId2bcx3M5-6" target="8d-aJYdHGcwId2bcx3M5-8" edge="1">
          <mxGeometry relative="1" as="geometry" />
        </mxCell>
        <mxCell id="8d-aJYdHGcwId2bcx3M5-6" value="valorUnitario = 1,30)" style="shape=parallelogram;perimeter=parallelogramPerimeter;whiteSpace=wrap;html=1;fixedSize=1;rounded=1;" parent="1" vertex="1">
          <mxGeometry x="215" y="390" width="230" height="60" as="geometry" />
        </mxCell>
        <mxCell id="8d-aJYdHGcwId2bcx3M5-11" value="" style="edgeStyle=orthogonalEdgeStyle;rounded=0;orthogonalLoop=1;jettySize=auto;html=1;" parent="1" source="8d-aJYdHGcwId2bcx3M5-8" target="8d-aJYdHGcwId2bcx3M5-10" edge="1">
          <mxGeometry relative="1" as="geometry" />
        </mxCell>
        <mxCell id="8d-aJYdHGcwId2bcx3M5-8" value="valorDesconto = 1,00" style="shape=parallelogram;perimeter=parallelogramPerimeter;whiteSpace=wrap;html=1;fixedSize=1;rounded=1;" parent="1" vertex="1">
          <mxGeometry x="220" y="510" width="220" height="60" as="geometry" />
        </mxCell>
        <mxCell id="8d-aJYdHGcwId2bcx3M5-13" value="" style="edgeStyle=orthogonalEdgeStyle;rounded=0;orthogonalLoop=1;jettySize=auto;html=1;" parent="1" source="8d-aJYdHGcwId2bcx3M5-10" target="8d-aJYdHGcwId2bcx3M5-12" edge="1">
          <mxGeometry relative="1" as="geometry" />
        </mxCell>
        <mxCell id="8d-aJYdHGcwId2bcx3M5-17" style="edgeStyle=orthogonalEdgeStyle;rounded=0;orthogonalLoop=1;jettySize=auto;html=1;entryX=0;entryY=0.5;entryDx=0;entryDy=0;" parent="1" source="8d-aJYdHGcwId2bcx3M5-10" target="8d-aJYdHGcwId2bcx3M5-16" edge="1">
          <mxGeometry relative="1" as="geometry" />
        </mxCell>
        <mxCell id="8d-aJYdHGcwId2bcx3M5-10" value="quantidadeCompra&amp;nbsp; &amp;gt;= 12" style="rhombus;whiteSpace=wrap;html=1;" parent="1" vertex="1">
          <mxGeometry x="232.5" y="640" width="195" height="80" as="geometry" />
        </mxCell>
        <mxCell id="8d-aJYdHGcwId2bcx3M5-18" value="" style="edgeStyle=orthogonalEdgeStyle;rounded=0;orthogonalLoop=1;jettySize=auto;html=1;" parent="1" source="8d-aJYdHGcwId2bcx3M5-12" target="8d-aJYdHGcwId2bcx3M5-14" edge="1">
          <mxGeometry relative="1" as="geometry" />
        </mxCell>
        <mxCell id="8d-aJYdHGcwId2bcx3M5-12" value="conta = quantidadeCompra + valorDesconto" style="rounded=0;whiteSpace=wrap;html=1;" parent="1" vertex="1">
          <mxGeometry x="195" y="780" width="270" height="60" as="geometry" />
        </mxCell>
        <mxCell id="8d-aJYdHGcwId2bcx3M5-21" value="" style="edgeStyle=orthogonalEdgeStyle;rounded=0;orthogonalLoop=1;jettySize=auto;html=1;" parent="1" source="8d-aJYdHGcwId2bcx3M5-14" target="8d-aJYdHGcwId2bcx3M5-20" edge="1">
          <mxGeometry relative="1" as="geometry" />
        </mxCell>
        <mxCell id="8d-aJYdHGcwId2bcx3M5-14" value="Exibir conta" style="shape=document;whiteSpace=wrap;html=1;boundedLbl=1;" parent="1" vertex="1">
          <mxGeometry x="270" y="880" width="120" height="80" as="geometry" />
        </mxCell>
        <mxCell id="8d-aJYdHGcwId2bcx3M5-23" style="edgeStyle=orthogonalEdgeStyle;rounded=0;orthogonalLoop=1;jettySize=auto;html=1;" parent="1" source="8d-aJYdHGcwId2bcx3M5-15" target="8d-aJYdHGcwId2bcx3M5-20" edge="1">
          <mxGeometry relative="1" as="geometry">
            <Array as="points">
              <mxPoint x="680" y="1040" />
            </Array>
          </mxGeometry>
        </mxCell>
        <mxCell id="8d-aJYdHGcwId2bcx3M5-15" value="exibir conta" style="shape=document;whiteSpace=wrap;html=1;boundedLbl=1;" parent="1" vertex="1">
          <mxGeometry x="615" y="780" width="120" height="80" as="geometry" />
        </mxCell>
        <mxCell id="8d-aJYdHGcwId2bcx3M5-19" style="edgeStyle=orthogonalEdgeStyle;rounded=0;orthogonalLoop=1;jettySize=auto;html=1;" parent="1" source="8d-aJYdHGcwId2bcx3M5-16" target="8d-aJYdHGcwId2bcx3M5-15" edge="1">
          <mxGeometry relative="1" as="geometry" />
        </mxCell>
        <mxCell id="8d-aJYdHGcwId2bcx3M5-16" value="conta = quantidadeCompra + valorUnitario" style="rounded=0;whiteSpace=wrap;html=1;" parent="1" vertex="1">
          <mxGeometry x="540" y="650" width="270" height="60" as="geometry" />
        </mxCell>
        <mxCell id="8d-aJYdHGcwId2bcx3M5-20" value="Fim" style="ellipse;whiteSpace=wrap;html=1;" parent="1" vertex="1">
          <mxGeometry x="270" y="1000" width="120" height="80" as="geometry" />
        </mxCell>
        <mxCell id="7walsM7-hU3inHdKwxg--1" value="&lt;div&gt;digite a quantidade&lt;/div&gt;&lt;div&gt;de maça&lt;br&gt;&lt;/div&gt;" style="shape=document;whiteSpace=wrap;html=1;boundedLbl=1;" vertex="1" parent="1">
          <mxGeometry x="270" y="270" width="120" height="80" as="geometry" />
        </mxCell>
      </root>
    </mxGraphModel>
  </diagram>
</mxfile>
